<svg id="adcb590c-37b1-4221-9d45-93c7cd4ea62e" data-name="图层 1" xmlns="http://www.w3.org/2000/svg" viewBox="0 0 120 120"><rect width="120" height="120" style="fill:none"/><path d="M55.61,105.25a1.48,1.48,0,0,1-1.48-1.48V16.23a1.48,1.48,0,0,1,3,0v87.54A1.48,1.48,0,0,1,55.61,105.25Zm32.11-.18a1.48,1.48,0,0,0,.59-2L62.54,55.42,80,16.85a1.48,1.48,0,1,0-2.7-1.23L59.24,55.53l26.47,48.94a1.48,1.48,0,0,0,1.3.78A1.53,1.53,0,0,0,87.72,105.07Zm14.94,0a1.48,1.48,0,0,0,.55-2L76.32,55.92l17.9-39.07a1.48,1.48,0,0,0-2.7-1.23L73,56.07l27.64,48.43a1.47,1.47,0,0,0,1.29.75A1.39,1.39,0,0,0,102.66,105.05ZM46,37.05a1.48,1.48,0,0,0,.62-2L36.32,15.54a1.48,1.48,0,1,0-2.62,1.39L44,36.44a1.48,1.48,0,0,0,1.31.79A1.45,1.45,0,0,0,46,37.05Zm-9.64,67.32L46.5,81.62a1.48,1.48,0,1,0-2.7-1.21L33.65,103.16a1.48,1.48,0,1,0,2.71,1.21Z" style="fill:#c69e78"/></svg>